<svg xmlns="http://www.w3.org/2000/svg" viewBox="63.24 -4.26 273.26 253.26"
    style="enable-background:new 0 0 400 245">
    <style>.st0{fill:#326ce5}</style>
    <g id="layer1_1_" transform="translate(-196.151 -154.232)">
        <g id="g2502" transform="translate(-474.962 -299.304) scale(2.66618)">
            <g id="g76" transform="matrix(.35278 0 0 -.35278 278.706 182.028)">
                <path id="path78"
                    d="M180.11-48.5c-3.6 0-6.53-2.93-6.53-6.53s2.93-6.53 6.53-6.53 6.53 2.93 6.53 6.53-2.93 6.53-6.53 6.53"
                    class="st0" />
            </g>
            <g id="g80" transform="matrix(.35278 0 0 -.35278 278.706 185.147)">
                <path id="path82"
                    d="M180.11-60.89c-5.2 0-9.77 2.71-12.38 6.79-2.12-5.15-4.23-11.04-5.83-15.52-5.9-16.53-10-27.28-15.38-30.94a14.657 14.657 0 0 0-10.51-4.43c-8.12 0-14.7 6.58-14.7 14.7 0 5.2 2.71 9.77 6.79 12.38-5.15 2.12-11.04 4.23-15.52 5.83-16.53 5.9-27.28 10-30.94 15.38a14.657 14.657 0 0 0-4.43 10.51c0 8.12 6.58 14.7 14.7 14.7 5.2 0 9.77-2.71 12.38-6.79 2.12 5.15 4.23 11.04 5.83 15.52 5.9 16.53 10 27.28 15.38 30.94 2.67 2.73 6.39 4.43 10.51 4.43 8.12 0 14.7-6.58 14.7-14.7 0-5.2-2.71-9.77-6.79-12.38 5.15-2.12 11.04-4.23 15.52-5.83 16.53-5.9 27.28-10 30.94-15.38 2.73-2.67 4.43-6.39 4.43-10.51 0-8.11-6.58-14.7-14.7-14.7m-34.88 99.77c-3.47 3.47-9.11 3.47-12.58 0l-78.8-78.79a8.884 8.884 0 0 1 0-12.58l78.79-78.79c3.47-3.47 9.11-3.47 12.58 0l78.79 78.79c3.47 3.47 3.47 9.11 0 12.58l-78.78 78.79z"
                    class="st0" />
            </g>
            <g id="g84" transform="matrix(.35278 0 0 -.35278 265.75 182.028)">
                <path id="path86"
                    d="M128.64-48.5c-3.6 0-6.53-2.93-6.53-6.53s2.93-6.53 6.53-6.53 6.53 2.93 6.53 6.53c.01 3.6-2.92 6.53-6.53 6.53"
                    class="st0" />
            </g>
            <g id="g88" transform="matrix(.35278 0 0 -.35278 272.228 188.507)">
                <path id="path90"
                    d="M154.38-74.23c-3.6 0-6.53-2.93-6.53-6.53s2.93-6.53 6.53-6.53 6.53 2.93 6.53 6.53-2.93 6.53-6.53 6.53"
                    class="st0" />
            </g>
            <g id="g92" transform="matrix(.35278 0 0 -.35278 270.72 178.053)">
                <path id="path94"
                    d="M148.39-32.71c-.8.78-1.51 1.66-2.11 2.6-2.12-5.15-4.23-11.04-5.83-15.51-5.9-16.53-10-27.28-15.38-30.94-.78-.8-1.66-1.51-2.6-2.11 5.15-2.12 11.04-4.23 15.51-5.83 16.53-5.9 27.28-10 30.94-15.38.8-.78 1.51-1.65 2.11-2.6 2.12 5.15 4.23 11.04 5.83 15.51 5.9 16.53 10 27.28 15.38 30.94.78.8 1.66 1.51 2.6 2.11-5.15 2.12-11.04 4.23-15.51 5.83-16.53 5.9-27.29 9.99-30.94 15.38"
                    class="st0" />
            </g>
            <g id="g96" transform="matrix(.35278 0 0 -.35278 272.228 177.469)">
                <path id="path98"
                    d="M154.38-30.39c3.6 0 6.53 2.93 6.53 6.53s-2.93 6.53-6.53 6.53-6.53-2.93-6.53-6.53 2.92-6.53 6.53-6.53"
                    class="st0" />
            </g>
            <g id="g100" transform="matrix(.35278 0 0 -.35278 252.894 206.934)">
                <path id="path102"
                    d="M77.59-147.42c-.44.44-.75 1.02-.95 1.75-.19.73-.29 1.66-.29 2.78v45.64l-6.79-1.17v-45.57c0-3.6.88-6.26 2.63-7.96 1.75-1.7 4.72-2.61 8.91-2.7l.95 5.7c-1.07.15-1.97.33-2.7.55-.74.21-1.32.54-1.76.98"
                    class="st0" />
            </g>
            <g id="g104" transform="matrix(.35278 0 0 -.35278 255.416 204.563)">
                <path id="path106"
                    d="M87.6-138c.15 1.32.45 2.61.91 3.87.46 1.27 1.11 2.38 1.94 3.36.83.97 1.84 1.76 3.03 2.37 1.19.61 2.57.91 4.13.91 2.77 0 4.95-.98 6.54-2.96 1.58-1.97 2.35-4.49 2.3-7.56H87.6zm10.08 16.28c-2.19 0-4.33-.41-6.43-1.24-2.1-.83-3.95-2.07-5.55-3.72-1.61-1.66-2.9-3.74-3.87-6.25-.97-2.51-1.46-5.44-1.46-8.8 0-2.87.38-5.51 1.13-7.92.75-2.41 1.91-4.49 3.47-6.24 1.56-1.75 3.54-3.13 5.95-4.13s5.27-1.5 8.58-1.5c2.63 0 4.98.24 7.05.73 2.07.49 3.52.95 4.35 1.39l-.95 5.7c-.83-.39-2.06-.79-3.69-1.21-1.63-.42-3.64-.62-6.02-.62-4.24 0-7.35 1.02-9.35 3.07-2 2.04-3.14 5.04-3.43 8.98h26c.05.39.07.81.07 1.28v1.13c0 6.52-1.36 11.38-4.09 14.57-2.73 3.19-6.65 4.78-11.76 4.78"
                    class="st0" />
            </g>
            <g id="g108" transform="matrix(.35278 0 0 -.35278 263.634 207.095)">
                <path id="path110"
                    d="M120.24-148.06c-.83-.2-1.86-.33-3.1-.4s-2.67-.11-4.27-.11c-2.68 0-4.8.47-6.35 1.42-1.56.95-2.34 2.64-2.34 5.07 0 1.32.32 2.37.95 3.18.63.8 1.42 1.44 2.37 1.9.95.46 2 .77 3.14.91 1.14.15 2.23.22 3.25.22 1.56 0 2.89-.09 3.98-.25 1.09-.17 1.88-.38 2.37-.62v-11.32zm3.47 29.47c-1.15 1.29-2.66 2.29-4.53 3-1.88.71-4.18 1.06-6.9 1.06-2.39 0-4.6-.18-6.65-.55-2.04-.36-3.5-.74-4.38-1.13l.8-5.62c.83.34 2.08.67 3.76.99 1.68.31 3.64.47 5.88.47 1.75 0 3.18-.25 4.27-.77 1.09-.51 1.96-1.19 2.59-2.05.63-.85 1.07-1.82 1.31-2.92.24-1.09.36-2.2.36-3.32v-1.9c-.19.05-.54.12-1.02.22-.49.1-1.06.21-1.71.33-.66.12-1.35.22-2.08.29-.73.07-1.44.11-2.12.11-2.14 0-4.19-.22-6.14-.66s-3.65-1.12-5.11-2.05c-1.46-.92-2.62-2.14-3.47-3.65-.85-1.51-1.28-3.31-1.28-5.41 0-2.19.37-4.07 1.1-5.62s1.75-2.81 3.07-3.76c1.31-.95 2.87-1.64 4.67-2.08 1.8-.44 3.77-.66 5.92-.66 1.51 0 3.03.06 4.56.18 1.53.12 2.96.26 4.27.4 1.31.15 2.49.3 3.54.47 1.05.17 1.86.3 2.45.4v23.74c0 2.14-.24 4.1-.73 5.88-.47 1.78-1.28 3.32-2.43 4.61"
                    class="st0" />
            </g>
            <g id="g112" transform="matrix(.35278 0 0 -.35278 268.945 202.25)">
                <path id="path114"
                    d="M141.34-128.82c-.73.12-1.47.22-2.23.29-.75.07-1.42.11-2.01.11-2.97 0-5.65-.25-8.03-.77-2.39-.51-4.38-1.06-5.99-1.64v-36.37h6.79v31.91c.39.1 1.21.28 2.44.55 1.24.27 2.49.4 3.76.4 1.94 0 3.54-.14 4.78-.4 1.24-.27 2.13-.5 2.67-.69l1.17 5.92c-.29.1-.74.21-1.35.33-.6.12-1.27.24-2 .36"
                    class="st0" />
            </g>
            <g id="g116" transform="matrix(.35278 0 0 -.35278 274.433 202.905)">
                <path id="path118"
                    d="M163.14-131.42c-1.19 1.53-2.79 2.73-4.78 3.58-2 .85-4.5 1.28-7.52 1.28-3.36 0-6.33-.22-8.91-.66-2.58-.44-4.65-.85-6.21-1.24v-36.88h6.79v32.06c.24.05.65.12 1.21.22.56.1 1.19.18 1.9.26.7.07 1.45.13 2.23.18.78.05 1.53.07 2.26.07 1.8 0 3.31-.23 4.53-.69 1.22-.46 2.19-1.21 2.92-2.23s1.25-2.37 1.57-4.02c.32-1.66.48-3.65.48-5.99v-19.87h6.79v21.33c0 2.58-.24 4.94-.73 7.08-.5 2.15-1.34 3.99-2.53 5.52"
                    class="st0" />
            </g>
            <g id="g120" transform="matrix(.35278 0 0 -.35278 280.768 206.244)">
                <path id="path122"
                    d="M188.3-144.68c-1.46 1.95-2.97 3.84-4.53 5.67s-3.07 3.4-4.53 4.72c2.92 2.87 5.61 5.65 8.07 8.34 2.46 2.69 4.98 5.53 7.56 8.49h-12.94c-.68-.82-1.5-1.79-2.44-2.9-.95-1.11-1.96-2.29-3.03-3.52-1.07-1.23-2.18-2.48-3.32-3.74-1.14-1.26-2.25-2.47-3.32-3.63v32.05l-10.88-1.75v-54.92h10.88v16.84c1.21-.98 2.44-2.17 3.68-3.59 1.24-1.41 2.42-2.89 3.54-4.43 1.12-1.54 2.18-3.08 3.17-4.61 1-1.54 1.88-2.94 2.66-4.21h12.51c-.83 1.61-1.85 3.39-3.07 5.34-1.21 1.95-2.55 3.9-4.01 5.85"
                    class="st0" />
            </g>
            <g id="g124" transform="matrix(.35278 0 0 -.35278 285.779 206.482)">
                <path id="path126"
                    d="M208.2-145.63c-1.17-1.22-3.02-1.83-5.55-1.83-1.31 0-2.43.19-3.36.59-.92.39-1.68.88-2.26 1.46-.58.59-1.01 1.23-1.28 1.94s-.4 1.36-.4 1.94c0 1.9.46 3.54 1.39 4.91s2.07 2.56 3.43 3.59c1.36-.44 2.64-.91 3.83-1.43 1.19-.51 2.23-1.1 3.1-1.76.87-.66 1.57-1.43 2.08-2.31.51-.88.77-1.88.77-3 0-1.51-.58-2.88-1.75-4.1m-11.39 29.8c.24.63.62 1.23 1.13 1.78.51.56 1.15 1.01 1.94 1.35.78.34 1.7.51 2.77.51 1.12 0 2.07-.18 2.85-.55.78-.36 1.42-.81 1.94-1.34.51-.54.88-1.1 1.09-1.71.22-.61.33-1.18.33-1.71 0-1.85-.41-3.4-1.24-4.66-.83-1.26-2.02-2.38-3.58-3.35-2.78.97-4.74 2.14-5.88 3.5-1.14 1.36-1.71 2.81-1.71 4.37-.01.58.11 1.18.36 1.81m16.06-12.68c1.85 1.16 3.4 2.76 4.64 4.78 1.24 2.02 1.86 4.19 1.86 6.53 0 1.61-.3 3.22-.91 4.85-.61 1.63-1.6 3.1-2.96 4.41-1.36 1.31-3.1 2.39-5.22 3.25-2.12.85-4.66 1.28-7.63 1.28-2.53 0-4.83-.4-6.9-1.21-2.07-.8-3.83-1.87-5.29-3.21a14.34 14.34 0 0 1-3.4-4.7c-.8-1.8-1.21-3.67-1.21-5.62 0-2.57.5-4.69 1.5-6.34 1-1.65 2.55-3.33 4.64-5.03-.97-.73-1.89-1.51-2.74-2.34-.85-.83-1.62-1.74-2.3-2.74-.68-1-1.22-2.11-1.61-3.33-.39-1.22-.58-2.56-.58-4.02 0-1.41.29-2.96.88-4.64.58-1.68 1.57-3.23 2.96-4.64 1.39-1.42 3.21-2.6 5.48-3.55 2.26-.95 5.1-1.43 8.51-1.43 2.97 0 5.59.38 7.85 1.13 2.26.75 4.15 1.82 5.66 3.18 1.51 1.36 2.64 2.96 3.4 4.79.75 1.83 1.13 3.84 1.13 6.03 0 2.63-.6 4.93-1.79 6.91-1.21 1.97-3.19 3.86-5.97 5.66"
                    class="st0" />
            </g>
            <g id="g128" transform="matrix(.35278 0 0 -.35278 292.694 205.727)">
                <path id="path130"
                    d="M235.67-142.63c-.36 1.22-1 2.32-1.9 3.32-.9.99-2.13 1.92-3.69 2.78-1.56.86-3.53 1.73-5.91 2.61-1.17.44-2.13.85-2.88 1.22-.76.37-1.35.71-1.79 1.03-.44.31-.73.64-.88.98-.14.34-.22.73-.22 1.17 0 1.9 1.7 2.85 5.11 2.85 1.85 0 3.52-.17 5-.51 1.48-.34 2.86-.73 4.12-1.17l1.9 8.47c-1.27.49-2.97.93-5.11 1.35-2.14.41-4.38.62-6.72.62-4.68 0-8.35-1.05-11.03-3.14-2.68-2.09-4.02-4.94-4.02-8.54 0-1.85.27-3.43.8-4.75a10.17 10.17 0 0 1 2.26-3.4c.97-.95 2.16-1.76 3.54-2.44 1.39-.68 2.93-1.34 4.64-1.97 2.19-.83 3.82-1.57 4.89-2.23 1.07-.66 1.61-1.42 1.61-2.3 0-1.12-.41-1.88-1.24-2.27-.83-.39-2.24-.58-4.24-.58-1.9 0-3.82.21-5.77.62-1.95.41-3.85.99-5.7 1.72l-1.83-8.84c.88-.39 2.45-.88 4.71-1.46 2.26-.59 5.1-.88 8.51-.88 5.21 0 9.24.97 12.09 2.92 2.85 1.94 4.27 4.81 4.27 8.6.02 1.6-.16 3.01-.52 4.22"
                    class="st0" />
            </g>
        </g>
    </g>
</svg>