<?xml version="1.0" encoding="UTF-8"?><svg id="Layer_1" xmlns="http://www.w3.org/2000/svg" viewBox="0 0 885.39 212.06"><path d="m186.13,106.03c0,17.05-.02,34.11.03,51.16,0,1.42-.4,2.2-1.66,2.92-30.03,17.12-60.03,34.28-90.02,51.46-1,.57-1.73.68-2.81.06-30.03-17.22-60.09-34.39-90.16-51.54-1.13-.64-1.47-1.36-1.46-2.61.04-21.88.03-43.77.03-65.65C.07,79.42.05,67.01,0,54.59c0-1.31.44-2.07,1.62-2.74C31.58,34.77,61.52,17.65,91.45.5c1.16-.66,2.01-.66,3.17,0,29.87,17.11,59.76,34.19,89.67,51.21,1.45.83,1.91,1.72,1.9,3.36-.06,16.01-.04,32.02-.03,48.03,0,.98,0,1.96,0,2.93,0,0-.01,0-.02,0ZM17.93,73.37c-.06.6-.1.85-.1,1.1,0,24.4,0,48.79-.04,73.19,0,1.27.65,1.68,1.52,2.18,21.05,11.99,42.09,23.99,63.14,35.99.47.27.97.47,1.64.79,0-6.32-.05-12.34.04-18.35.02-1.44-.45-2.19-1.69-2.89-14.83-8.41-29.62-16.91-44.46-25.29-1.62-.92-2.22-1.87-2.21-3.77.09-17,.06-34.01.02-51.01,0-.73-.27-1.83-.78-2.14-5.56-3.28-11.19-6.44-17.07-9.79Zm8.87-15.45c5.61,3.23,11.07,6.31,16.46,9.5,1.12.66,1.91.6,3-.03,14.99-8.64,30.02-17.21,45-25.87,1.31-.76,2.21-.75,3.52,0,15,8.63,30.03,17.19,45.08,25.74.6.34,1.6.68,2.08.42,5.75-3.16,11.44-6.43,17.23-9.72-.31-.22-.46-.35-.63-.44-21.45-12.24-42.89-24.48-64.37-36.66-.62-.35-1.78-.3-2.42.05-5.55,3.06-11.03,6.24-16.53,9.37-16.06,9.16-32.11,18.32-48.42,27.63Zm75.16,128.72c.91-.45,1.49-.71,2.04-1.03,20.81-11.87,41.61-23.76,62.45-35.58,1.32-.75,1.75-1.55,1.75-3.04-.05-23.8-.04-47.6-.04-71.4v-2.22c-5.57,3.18-10.79,6.23-16.1,9.13-1.36.74-1.73,1.6-1.73,3.07.05,16.8-.01,33.61.09,50.41.01,2.11-.62,3.19-2.46,4.22-14.8,8.32-29.54,16.75-44.27,25.2-.7.4-1.64,1.21-1.66,1.84-.12,6.33-.07,12.67-.07,19.4Zm-39.06-53.12c.15.19.2.31.29.37,9.64,5.51,19.27,11.03,28.93,16.5.46.26,1.3.29,1.75.04,9.78-5.52,19.52-11.1,29.41-16.74-.47-.34-.8-.64-1.17-.86-9.3-5.31-18.61-10.6-27.89-15.95-.95-.55-1.59-.44-2.46.07-9.11,5.24-18.25,10.44-27.38,15.66-.5.28-.97.61-1.47.93Zm-9.13-15.47c.55-.24.91-.36,1.23-.54,9.35-5.33,18.71-10.64,28.02-16.05.59-.34,1.03-1.44,1.03-2.19.07-10.45.05-20.91.04-31.36,0-.48-.06-.96-.1-1.59-.72.37-1.24.62-1.74.9-9.01,5.14-18,10.32-27.04,15.4-1.21.68-1.56,1.47-1.56,2.78.05,10.19.02,20.38.03,30.57,0,.63.05,1.26.09,2.07Zm48.37-51.76c-.08.59-.17.96-.17,1.32,0,10.66-.04,21.32.06,31.98,0,.73.79,1.74,1.49,2.14,7.11,4.15,14.27,8.2,21.41,12.27,2.41,1.38,4.82,2.75,7.33,4.18.06-.43.11-.62.11-.8,0-10.86.03-21.71-.05-32.57,0-.69-.69-1.64-1.33-2.01-6.88-4.02-13.81-7.95-20.73-11.89-2.65-1.51-5.3-3.02-8.12-4.62Z" style="fill:#fff; stroke-width:0px;"/><path d="m218.8,148.08V61.6h16.06v86.48h-16.06Zm14.21-20.38l-.74-19.02,45.21-47.07h18.16l-37.68,40.03-8.89,9.76-16.06,16.31Zm46.08,20.38l-33.23-39.41,10.75-11.74,41.38,51.14h-18.9Z" style="fill:#fff; stroke-width:0px;"/><path d="m345.92,149.31c-11.78,0-21.02-3.34-27.73-10.01-6.71-6.67-10.07-16.35-10.07-29.03v-48.67h16.06v48.18c0,8.89,1.92,15.36,5.74,19.39,3.83,4.04,9.24,6.05,16.24,6.05s12.39-2.02,16.18-6.05c3.79-4.03,5.68-10.5,5.68-19.39v-48.18h15.81v48.67c0,12.68-3.36,22.36-10.07,29.03-6.71,6.67-16,10.01-27.86,10.01Z" style="fill:#fff; stroke-width:0px;"/><path d="m406.45,148.08V61.6h40.64c10.29,0,18.16,2.04,23.6,6.12s8.15,9.53,8.15,16.37c0,4.61-1.07,8.55-3.21,11.8-2.14,3.25-5,5.77-8.59,7.54-3.58,1.77-7.47,2.66-11.67,2.66l2.22-4.45c4.86,0,9.22.89,13.09,2.66,3.87,1.77,6.92,4.34,9.14,7.72,2.22,3.38,3.34,7.58,3.34,12.6,0,7.41-2.82,13.18-8.46,17.29-5.64,4.12-14.02,6.18-25.14,6.18h-43.11Zm16.06-12.6h26.07c5.93,0,10.5-.99,13.71-2.96s4.82-5.15,4.82-9.51-1.61-7.43-4.82-9.45c-3.21-2.02-7.78-3.03-13.71-3.03h-27.3v-12.48h23.97c5.52,0,9.8-.99,12.85-2.96,3.05-1.98,4.57-4.94,4.57-8.89s-1.52-7.04-4.57-9.02c-3.05-1.98-7.33-2.96-12.85-2.96h-22.73v61.27Z" style="fill:#fff; stroke-width:0px;"/><path d="m516.52,134.49h48.8v13.59h-64.86V61.6h63.13v13.59h-47.07v59.3Zm-1.24-36.94h42.99v13.22h-42.99v-13.22Z" style="fill:#fff; stroke-width:0px;"/><path d="m599.41,148.08h-16.06V61.6h63.13v13.59h-47.07v72.89Zm-1.24-46.57h42.99v13.34h-42.99v-13.34Z" style="fill:#fff; stroke-width:0px;"/><path d="m678.1,134.49h48.8v13.59h-64.86V61.6h63.13v13.59h-47.07v59.3Zm-1.24-36.94h42.99v13.22h-42.99v-13.22Z" style="fill:#fff; stroke-width:0px;"/><path d="m771.74,149.31c-6.75,0-13.2-.97-19.33-2.9-6.14-1.93-11.06-4.43-14.76-7.47l5.56-12.48c3.46,2.72,7.74,4.98,12.85,6.79,5.11,1.81,10.33,2.72,15.69,2.72,4.53,0,8.19-.49,10.99-1.48,2.8-.99,4.86-2.33,6.18-4.01,1.32-1.69,1.98-3.6,1.98-5.75,0-2.63-.95-4.76-2.84-6.36-1.9-1.61-4.35-2.88-7.35-3.83-3.01-.95-6.34-1.81-10.01-2.59-3.67-.78-7.33-1.75-10.99-2.9-3.67-1.15-7.02-2.61-10.07-4.39-3.05-1.77-5.5-4.14-7.35-7.1-1.85-2.96-2.78-6.75-2.78-11.37s1.25-9,3.77-12.91c2.51-3.91,6.34-7.04,11.49-9.39,5.15-2.35,11.67-3.52,19.58-3.52,5.19,0,10.33.66,15.44,1.98,5.11,1.32,9.55,3.21,13.34,5.68l-5.07,12.48c-3.87-2.3-7.87-4.01-11.98-5.13-4.12-1.11-8.07-1.67-11.86-1.67-4.37,0-7.95.54-10.75,1.61-2.8,1.07-4.84,2.49-6.12,4.26-1.28,1.77-1.91,3.73-1.91,5.87,0,2.64.93,4.76,2.78,6.36,1.85,1.61,4.28,2.86,7.29,3.77,3.01.91,6.36,1.77,10.07,2.59,3.71.82,7.37,1.79,11,2.9,3.62,1.11,6.96,2.55,10.01,4.32,3.05,1.77,5.5,4.12,7.35,7.04,1.85,2.92,2.78,6.65,2.78,11.18s-1.26,8.88-3.77,12.79c-2.51,3.91-6.36,7.04-11.55,9.39-5.19,2.35-11.74,3.52-19.64,3.52Z" style="fill:#fff; stroke-width:0px;"/><path d="m840.18,148.08v-72.89h-28.66v-13.59h73.38v13.59h-28.66v72.89h-16.06Z" style="fill:#fff; stroke-width:0px;"/></svg>