<?xml version="1.0" encoding="utf-8"?>
<!-- Generator: Adobe Illustrator 28.0.0, SVG Export Plug-In . SVG Version: 6.00 Build 0)  -->
<svg version="1.1" id="a" xmlns="http://www.w3.org/2000/svg" xmlns:xlink="http://www.w3.org/1999/xlink" x="0px" y="0px"
	 viewBox="0 0 373.9 76.1" style="enable-background:new 0 0 373.9 76.1;" xml:space="preserve">
<style type="text/css">
	.st0{fill:#FFFFFF;}
	.st1{enable-background:new    ;}
</style>
<path class="st0" d="M16.2,47.3H7.5v20.3h20.3v-8.7H16.2V47.3z M59.8,47.4v11.5H48.2v8.7h20.3V47.3L59.8,47.4z M7.5,27.1h8.8
	L16.2,27V15.5h11.6V6.8H7.5C7.5,6.8,7.5,27.1,7.5,27.1z M48.2,6.8v8.7h11.6v11.6h8.7V6.8H48.2z"/>
<path class="st0" d="M47,27.1L35.4,15.5h12.7V6.8H27.8v8.7l11.6,11.6H47z M36.6,47.3H29l9.6,9.6l1.9,2H27.8v8.7h20.4v-8.8l-5.8-5.7
	L36.6,47.3z M59.8,27.1v12.6l-2-2l-9.6-9.6v7.7l5.7,5.7l5.8,5.8h8.8V27.1C68.5,27.1,59.8,27.1,59.8,27.1z M27.8,38.6L16.3,27.1H7.5
	v20.2h8.7V34.7l11.6,11.6C27.8,46.3,27.8,38.6,27.8,38.6z"/>
<g class="st1">
	<path class="st0" d="M80.9,24.8c0-7.4,6.1-13.6,13.3-13.6c3.8,0,7.3,1.8,9.8,4.5L99.5,20c-1.3-1.7-3.2-2.8-5.3-2.8
		c-3.8,0-7,3.5-7,7.7s3.2,7.7,7,7.7c2.1,0,4-1.1,5.3-2.8L104,34c-2.4,2.8-5.9,4.6-9.8,4.6C87,38.5,80.9,32.3,80.9,24.8z M126,32.2
		V38h-18V11.7h6.1v20.5H126z M128.8,24.8c0-7.4,6.1-13.6,13.3-13.6s13.3,6.2,13.3,13.6s-6.1,13.7-13.3,13.7S128.8,32.3,128.8,24.8z
		 M149,24.8c0-4.1-3.2-7.7-6.9-7.7c-3.8,0-7,3.5-7,7.7s3.2,7.7,7,7.7C145.9,32.6,149,29,149,24.8z M159.3,26.5V11.7h6.1v14.5
		c0,3.7,2.2,6.4,5.3,6.4s5.4-2.6,5.4-6.4V11.7h6.1v14.8c0,7.1-4.7,12-11.5,12C164,38.5,159.3,33.6,159.3,26.5L159.3,26.5z
		 M187.4,11.7h9c8.5,0,14.5,5.5,14.5,13.2s-6,13.2-14.5,13.2h-9V11.7z M197.4,32.1c4.2,0,7.2-3,7.2-7.3s-3-7.2-7.2-7.2h-3.8v14.5
		H197.4z M225.1,11.7h6.1L242,27.3V11.7h6.1V38H242l-10.8-15.6V38h-6.1L225.1,11.7L225.1,11.7z M269.9,34h-9.6l-1.5,4h-6.9l9.8-26.4
		h6.9l9.8,26.4h-6.9L269.9,34L269.9,34z M268.1,29.1l-3-8.1l-3,8.1H268.1z M287.9,17.5h-7.5v-5.9h21.1v5.9H294V38h-6.1V17.5z
		 M305.7,11.7h6.1V38h-6.1V11.7z M342.1,11.7L332.4,38h-6.9l-9.7-26.4h6.9l6.3,17l6.3-17L342.1,11.7L342.1,11.7z M352.1,17.5v4.1
		h12.1v5.9h-12.1v4.6h13.3V38H346V11.7h19.4v5.9h-13.3V17.5z"/>
</g>
<g class="st1">
	<path class="st0" d="M91.5,62.7l-3.4-4.8h-1.5v4.8h-3.8V47.3h7.1c3.4,0,5.8,2.2,5.8,5.3c0,2.4-1.4,4.2-3.6,4.9l3.6,5.2H91.5z
		 M86.6,54.4h3c1.3,0,2.2-0.7,2.2-1.8s-0.9-1.8-2.2-1.8h-3V54.4z M98.6,47.3h3.8v15.4h-3.8V47.3z M105.2,55c0-4.3,3.8-7.9,8.3-7.9
		s8.3,3.6,8.3,7.9s-3.8,8-8.3,8S105.2,59.3,105.2,55z M117.8,55c0-2.4-2-4.5-4.3-4.5c-2.4,0-4.3,2.1-4.3,4.5s2,4.5,4.3,4.5
		S117.8,57.4,117.8,55z M123.3,60.4l2.5-2.4c0.4,0.9,1.4,1.5,2.3,1.5c1.2,0,2.1-0.9,2.1-2.2v-10h3.8v10.4c0,3.1-2.2,5.3-5.4,5.3
		C126.5,63,124.4,61.9,123.3,60.4L123.3,60.4z M147.4,60.3h-6l-0.9,2.4h-4.3l6.1-15.4h4.3l6.1,15.4h-4.3L147.4,60.3L147.4,60.3z
		 M146.2,57.5l-1.9-4.7l-1.9,4.7H146.2L146.2,57.5z"/>
</g>
</svg>
